<?xml version="1.0" encoding="UTF-8" standalone="no"?>
<svg
   xmlns:dc="http://purl.org/dc/elements/1.1/"
   xmlns:cc="http://creativecommons.org/ns#"
   xmlns:rdf="http://www.w3.org/1999/02/22-rdf-syntax-ns#"
   xmlns:svg="http://www.w3.org/2000/svg"
   xmlns="http://www.w3.org/2000/svg"
   xmlns:xlink="http://www.w3.org/1999/xlink"
   xmlns:sodipodi="http://sodipodi.sourceforge.net/DTD/sodipodi-0.dtd"
   xmlns:inkscape="http://www.inkscape.org/namespaces/inkscape"
   height="100%"
   onload="on_load(evt);"
   version="1.1"
   viewBox="0 0 512 512"
   width="100%"
   id="svg2"
   inkscape:version="0.48.4 r9939"
   sodipodi:docname="blob.svg"
   inkscape:export-filename="blob.png"
   inkscape:export-xdpi="90"
   inkscape:export-ydpi="90">
  <script
     xlink:href=".index.js"
     id="script4" />
  <title
     id="title6">Disarmer.ru | Главная | Main page</title>
  <defs
     id="defs8">
    <linearGradient
       id="linearGradient5610">
      <stop
         id="stop5612"
         offset="0"
         style="stop-color:#767676;stop-opacity:1;" />
      <stop
         style="stop-color:#d1d1d1;stop-opacity:1;"
         offset="0.72060221"
         id="stop5614" />
      <stop
         id="stop5616"
         offset="1"
         style="stop-color:#767676;stop-opacity:1;" />
    </linearGradient>
    <filter
       color-interpolation-filters="sRGB"
       id="o2-8">
      <feGaussianBlur
         stdDeviation="0.5"
         id="feGaussianBlur18-6" />
    </filter>
    <filter
       color-interpolation-filters="sRGB"
       id="o3-2">
      <feGaussianBlur
         stdDeviation="0.5"
         id="feGaussianBlur21-3" />
    </filter>
    <filter
       color-interpolation-filters="sRGB"
       id="o4-1">
      <feGaussianBlur
         stdDeviation="0.5"
         id="feGaussianBlur24-4" />
    </filter>
    <filter
       color-interpolation-filters="sRGB"
       id="o5-0">
      <feGaussianBlur
         stdDeviation="0.3"
         id="feGaussianBlur27-7" />
    </filter>
    <filter
       inkscape:collect="always"
       id="filter5624"
       x="-0.092622951"
       width="1.1852459"
       y="-0.36243761"
       height="1.7248752"
       color-interpolation-filters="sRGB">
      <feGaussianBlur
         inkscape:collect="always"
         stdDeviation="17.028522"
         id="feGaussianBlur5626" />
    </filter>
    <linearGradient
       inkscape:collect="always"
       xlink:href="#linearGradient5610"
       id="linearGradient5653"
       gradientUnits="userSpaceOnUse"
       x1="1280"
       y1="108.31113"
       x2="1280"
       y2="1516.4076"
       gradientTransform="matrix(0.26666667,0,0,0.35555556,170.66667,-32.853339)" />
  </defs>
  <sodipodi:namedview
     bordercolor="#666666"
     borderlayer="true"
     borderopacity="1.0"
     pagecolor="#000000"
     showgrid="false"
     showguides="true"
     id="namedview631"
     inkscape:pageopacity="1"
     inkscape:zoom="1.0198655"
     inkscape:cx="372.48249"
     inkscape:cy="267.10582"
     inkscape:window-width="1920"
     inkscape:window-height="1007"
     inkscape:window-x="0"
     inkscape:window-y="25"
     inkscape:window-maximized="1"
     inkscape:current-layer="svg2" />
  <metadata
     id="metadata633">
    <rdf:RDF>
      <cc:Work
         rdf:about="">
        <dc:format>image/svg+xml</dc:format>
        <dc:type
           rdf:resource="http://purl.org/dc/dcmitype/StillImage" />
        <dc:title>Disarmer.ru | Главная | Main page</dc:title>
      </cc:Work>
    </rdf:RDF>
  </metadata>
  <rect
     id="rect637"
     y="-7.6293945e-06"
     x="1.2e-06"
     width="512"
     style="fill:url(#linearGradient5653);fill-opacity:1"
     height="512" />
  <path
     transform="matrix(0.82567071,0,0,0.82567071,-122.78683,25.21341)"
     d="m 688.32602,481.84717 a 220.61731,56.379982 0 1 1 -441.23462,0 220.61731,56.379982 0 1 1 441.23462,0 z"
     sodipodi:ry="56.379982"
     sodipodi:rx="220.61731"
     sodipodi:cy="481.84717"
     sodipodi:cx="467.70871"
     id="path5618"
     style="opacity:0.46666667;fill:#000000;fill-opacity:1;stroke:none;filter:url(#filter5624)"
     sodipodi:type="arc" />
  <text
     sodipodi:linespacing="125%"
     id="text5630"
     y="85.92601"
     x="9.137702"
     style="font-size:72.77133942px;font-style:normal;font-weight:normal;line-height:125%;letter-spacing:0px;word-spacing:0px;fill:#000000;fill-opacity:1;stroke:#d45500;stroke-width:1.53301895;stroke-miterlimit:4;stroke-dasharray:none;font-family:Sans"
     xml:space="preserve"><tspan
       style="font-style:normal;font-variant:normal;font-weight:600;font-stretch:normal;stroke:#d45500;stroke-width:1.53301895;stroke-miterlimit:4;stroke-dasharray:none;font-family:URW Gothic L;-inkscape-font-specification:URW Gothic L Semi-Bold"
       y="85.92601"
       x="9.137702"
       id="tspan5632"
       sodipodi:role="line">disarmerRace</tspan></text>
  <g
     transform="matrix(0.82567071,0,0,0.82567071,393.45167,72.2978)"
     id="g665">
    <g
       transform="translate(0,-930.362)"
       id="g1033">
      <use
         height="90"
         style="fill:#ff0101;stroke:#ff0101"
         transform="translate(69.236,84.488)"
         width="600"
         x="0"
         xlink:href="#"
         y="0"
         id="use1035" />
      <use
         height="90"
         style="fill:#ff0101;stroke:#ff0101;stroke-width:1.20000005"
         transform="matrix(0.811,0,0,0.812,95.472,244.37)"
         width="600"
         x="0"
         xlink:href="#"
         y="0"
         id="use1037" />
      <use
         height="90"
         style="fill:#ff0101;stroke:#ff0101;stroke-width:1.5"
         transform="matrix(0.685,0,0,0.687,110.945,377.717)"
         width="600"
         x="0"
         xlink:href="#"
         y="0"
         id="use1039" />
      <use
         height="90"
         style="fill:#ff0101;stroke:#ff0101;stroke-width:1.79999995"
         transform="matrix(0.559,0,0,0.562,128.453,487.311)"
         width="600"
         x="0"
         xlink:href="#"
         y="0"
         id="use1041" />
      <use
         height="90"
         style="fill:#ff0101;stroke:#ff0101;stroke-width:2.29999995"
         transform="matrix(0.432,0,0,0.437,143.96,613.049)"
         width="600"
         x="0"
         xlink:href="#"
         y="0"
         id="use1043" />
      <use
         height="90"
         style="fill:#ff0101;stroke:#ff0101;stroke-width:3.20000005"
         transform="matrix(0.306,0,0,0.313,157.476,725.616)"
         width="600"
         x="0"
         xlink:href="#"
         y="0"
         id="use1045" />
      <use
         height="90"
         style="fill:#ff0101;stroke:#ff0101;stroke-width:5.4000001"
         transform="matrix(0.18,0,0,0.188,163.968,850.255)"
         width="600"
         x="0"
         xlink:href="#"
         y="0"
         id="use1047" />
    </g>
    <g
       transform="translate(0,-930.362)"
       id="g1049">
      <use
         height="90"
         style="fill:#ff0101;stroke:#ff0101"
         transform="translate(69.236,84.488)"
         width="600"
         x="0"
         xlink:href="#"
         y="0"
         id="use1051" />
      <use
         height="90"
         style="fill:#ff0101;stroke:#ff0101;stroke-width:1.20000005"
         transform="matrix(0.811,0,0,0.812,95.472,244.37)"
         width="600"
         x="0"
         xlink:href="#"
         y="0"
         id="use1053" />
      <use
         height="90"
         style="fill:#ff0101;stroke:#ff0101;stroke-width:1.5"
         transform="matrix(0.685,0,0,0.687,110.945,377.717)"
         width="600"
         x="0"
         xlink:href="#"
         y="0"
         id="use1055" />
      <use
         height="90"
         style="fill:#ff0101;stroke:#ff0101;stroke-width:1.79999995"
         transform="matrix(0.559,0,0,0.562,128.453,487.311)"
         width="600"
         x="0"
         xlink:href="#"
         y="0"
         id="use1057" />
      <use
         height="90"
         style="fill:#ff0101;stroke:#ff0101;stroke-width:2.29999995"
         transform="matrix(0.432,0,0,0.437,143.96,613.049)"
         width="600"
         x="0"
         xlink:href="#"
         y="0"
         id="use1059" />
      <use
         height="90"
         style="fill:#ff0101;stroke:#ff0101;stroke-width:3.20000005"
         transform="matrix(0.306,0,0,0.313,157.476,725.616)"
         width="600"
         x="0"
         xlink:href="#"
         y="0"
         id="use1061" />
      <use
         height="90"
         style="fill:#ff0101;stroke:#ff0101;stroke-width:5.4000001"
         transform="matrix(0.18,0,0,0.188,163.968,850.255)"
         width="600"
         x="0"
         xlink:href="#"
         y="0"
         id="use1063" />
    </g>
    <g
       transform="translate(0,-930.362)"
       id="g1065">
      <use
         height="90"
         style="fill:#ff0101;stroke:#ff0101"
         transform="translate(69.236,84.488)"
         width="600"
         x="0"
         xlink:href="#"
         y="0"
         id="use1067" />
      <use
         height="90"
         style="fill:#ff0101;stroke:#ff0101;stroke-width:1.20000005"
         transform="matrix(0.811,0,0,0.812,95.472,244.37)"
         width="600"
         x="0"
         xlink:href="#"
         y="0"
         id="use1069" />
      <use
         height="90"
         style="fill:#ff0101;stroke:#ff0101;stroke-width:1.5"
         transform="matrix(0.685,0,0,0.687,110.945,377.717)"
         width="600"
         x="0"
         xlink:href="#"
         y="0"
         id="use1071" />
      <use
         height="90"
         style="fill:#ff0101;stroke:#ff0101;stroke-width:1.79999995"
         transform="matrix(0.559,0,0,0.562,128.453,487.311)"
         width="600"
         x="0"
         xlink:href="#"
         y="0"
         id="use1073" />
      <use
         height="90"
         style="fill:#ff0101;stroke:#ff0101;stroke-width:2.29999995"
         transform="matrix(0.432,0,0,0.437,143.96,613.049)"
         width="600"
         x="0"
         xlink:href="#"
         y="0"
         id="use1075" />
      <use
         height="90"
         style="fill:#ff0101;stroke:#ff0101;stroke-width:3.20000005"
         transform="matrix(0.306,0,0,0.313,157.476,725.616)"
         width="600"
         x="0"
         xlink:href="#"
         y="0"
         id="use1077" />
      <use
         height="90"
         style="fill:#ff0101;stroke:#ff0101;stroke-width:5.4000001"
         transform="matrix(0.18,0,0,0.188,163.968,850.255)"
         width="600"
         x="0"
         xlink:href="#"
         y="0"
         id="use1079" />
    </g>
    <g
       transform="translate(0,-930.362)"
       id="g1081">
      <use
         height="90"
         style="fill:#ff0101;stroke:#ff0101"
         transform="translate(69.236,84.488)"
         width="600"
         x="0"
         xlink:href="#"
         y="0"
         id="use1083" />
      <use
         height="90"
         style="fill:#ff0101;stroke:#ff0101;stroke-width:1.20000005"
         transform="matrix(0.811,0,0,0.812,95.472,244.37)"
         width="600"
         x="0"
         xlink:href="#"
         y="0"
         id="use1085" />
      <use
         height="90"
         style="fill:#ff0101;stroke:#ff0101;stroke-width:1.5"
         transform="matrix(0.685,0,0,0.687,110.945,377.717)"
         width="600"
         x="0"
         xlink:href="#"
         y="0"
         id="use1087" />
      <use
         height="90"
         style="fill:#ff0101;stroke:#ff0101;stroke-width:1.79999995"
         transform="matrix(0.559,0,0,0.562,128.453,487.311)"
         width="600"
         x="0"
         xlink:href="#"
         y="0"
         id="use1089" />
      <use
         height="90"
         style="fill:#ff0101;stroke:#ff0101;stroke-width:2.29999995"
         transform="matrix(0.432,0,0,0.437,143.96,613.049)"
         width="600"
         x="0"
         xlink:href="#"
         y="0"
         id="use1091" />
      <use
         height="90"
         style="fill:#ff0101;stroke:#ff0101;stroke-width:3.20000005"
         transform="matrix(0.306,0,0,0.313,157.476,725.616)"
         width="600"
         x="0"
         xlink:href="#"
         y="0"
         id="use1093" />
      <use
         height="90"
         style="fill:#ff0101;stroke:#ff0101;stroke-width:5.4000001"
         transform="matrix(0.18,0,0,0.188,163.968,850.255)"
         width="600"
         x="0"
         xlink:href="#"
         y="0"
         id="use1095" />
    </g>
    <g
       transform="matrix(4.0806671,0,0,4.0806671,-1094.1749,-348.09191)"
       id="g667">
      <g
         style="stroke-width:4.69999981"
         transform="matrix(0.334,0,0,0.415,177.944,-10.872)"
         id="g669">
        <path
           d="m 170.4,480.2 c -6.6,-12.4 4.9,-27.2 15.8,-33.1 17.6,-10.5 43.2,-8.1 55.6,9.2 5.6,8 12.5,29.1 -3,29.6 -21.7,-0.4 -43.6,-1 -65.2,-4.1 l -1.5,-0.5 -1.8,-1.1 0,0 z"
           style="fill:#a05a2c;stroke:#000000;stroke-width:4.69999981"
           id="path671"
           inkscape:connector-curvature="0" />
        <path
           d="m 174.6,458.4 c -8.4,12.7 9.7,14.6 18.2,15.6 13.1,0.7 26.2,1.9 39.3,1.5 8.1,1.2 13.9,-10.1 11.7,-12.9 6.7,9.8 3.7,26.9 -11.3,22.2 -17.8,-0.8 -35.7,-1.3 -53.4,-3 -16,-0.4 -10.6,-14.8 -4.5,-23.5 z"
           style="fill:#803300;filter:url(#o2-8)"
           id="path673"
           inkscape:connector-curvature="0" />
      </g>
      <path
         d="m 248.3,152.4 25.2,15.6 c 6.3,-4.4 7.9,-6.6 8.3,-9.4 0.6,-3.9 -2.4,-10.6 -2.4,-10.6 z"
         style="fill:#6c5d53;stroke:#000000;stroke-width:1.29999995"
         id="path675"
         inkscape:connector-curvature="0" />
      <path
         d="m 280.2,151.7 c 0,0 0.6,2 0.8,3.2 0.3,1.6 0.5,3.1 0,4.6 -0.6,1.8 -2.1,3.2 -3.5,4.5 -1.2,1.2 -4.1,3.2 -4.1,3.2 l -0.5,-0.2 c 0,0 2.6,-2.2 4,-3.4 1.3,-1.1 2.3,-2.6 2.8,-4.2 0.4,-1.3 0.1,-3.2 -0.4,-4.4 -0.5,-1.3 -2.8,-3.1 -2.8,-3.1 z"
         style="fill:#d45500"
         id="path677"
         inkscape:connector-curvature="0" />
      <path
         d="m 280.4,150.8 -47.3,-44.6 c 0,0 -8,-2.7 -12.4,1.7 -2.1,2.1 -5.8,6.2 -5.8,6.2 z"
         style="fill:#6c5d53;stroke:#000000;stroke-width:1.5"
         id="path679"
         inkscape:connector-curvature="0" />
      <path
         d="m 264.9,151.9 c -1.3,1.4 -0.6,4 0.3,5.7 0.4,0.8 1.2,1.8 2.1,1.8 2.3,0 3,-3.6 4.3,-4 1.2,-0.3 2.2,0.3 2.9,1.4 0.8,1.5 0.1,4.3 1.1,5.1 0.6,0.5 1.6,0.3 2.2,0 1.3,-1 2.2,-2.9 2.4,-4.5 0.2,-1.9 -0.1,-5 -1.4,-6.3 -3.7,-3.4 -10.5,-3 -13.9,0.8 z"
         style="fill:#241f1c"
         id="path681"
         inkscape:connector-curvature="0" />
      <g
         transform="matrix(0.463,0,0,0.474,112.23,-37.743)"
         id="g683">
        <path
           d="m 363.4,395.3 c -5.7,10.8 -20.8,10.7 -30,4.6 -10.7,-5.8 -17,-19.8 -11.1,-31.2 4.6,-14.4 18.6,-0.2 25.1,5.3 5.7,6.3 14.9,12.3 15.9,21.3 z"
           style="fill:#ffe680;stroke:#000000;stroke-width:3.79999995"
           id="path685"
           inkscape:connector-curvature="0" />
        <path
           d="m 351.5,389.1 c -7.5,8 -20.1,9 -29.2,3 -5.5,-2.8 -12.9,-9.6 -8.6,0.2 5.5,7.7 18.1,9.8 27,7.3 5.1,-1.7 8.6,-5.7 10.7,-10.5 z"
           style="fill:#c8ab37;filter:url(#o3-2)"
           transform="matrix(0.958,0.288,-0.288,0.958,136.91,-77.892)"
           id="path687"
           inkscape:connector-curvature="0" />
      </g>
      <g
         transform="matrix(0.463,0,0,0.474,112.23,-37.743)"
         id="g689">
        <path
           d="m 193.4,343.1 c -9.3,-15.8 -18.7,-31.7 -28,-47.5 3.3,-4.1 13.8,-13.5 16.7,-5.3 8.4,14.8 16.7,29.5 25.1,44.3 -4.6,2.9 -9.2,5.7 -13.8,8.6 z"
           style="fill:#333333;stroke:#000000"
           id="path691"
           inkscape:connector-curvature="0" />
        <g
           style="stroke:#000000"
           id="g693">
          <path
             d="m 182.4,291.9 c -2.7,5.9 -5.4,11.8 -8.1,17.7 1.8,1.7 4,10.2 5.4,5.4 2.3,-5.3 4.6,-10.6 6.9,-15.9 -1.4,-2.4 -2.8,-4.8 -4.2,-7.2 z"
             style="fill:#999999;stroke:#000000"
             id="path695"
             inkscape:connector-curvature="0" />
          <path
             d="m 169.4,301.5 c 6.3,0.3 12.6,0.6 19,1 0.5,2.3 6.8,8.4 1.9,7.3 -5.6,-0.4 -11.2,-0.8 -16.8,-1.2 -1.4,-2.3 -2.7,-4.6 -4.1,-7 z"
             style="fill:#999999;stroke:#000000"
             id="path697"
             inkscape:connector-curvature="0" />
        </g>
        <g
           style="stroke:#000000"
           transform="translate(9.64,16.692)"
           id="g699">
          <path
             d="m 182.4,291.9 c -2.7,5.9 -5.4,11.8 -8.1,17.7 1.8,1.7 4,10.2 5.4,5.4 2.3,-5.3 4.6,-10.6 6.9,-15.9 -1.4,-2.4 -2.8,-4.8 -4.2,-7.2 z"
             style="fill:#999999;stroke:#000000"
             id="path701"
             inkscape:connector-curvature="0" />
          <path
             d="m 169.4,301.5 c 6.3,0.3 12.6,0.6 19,1 0.5,2.3 6.8,8.4 1.9,7.3 -5.6,-0.4 -11.2,-0.8 -16.8,-1.2 -1.4,-2.3 -2.7,-4.6 -4.1,-7 z"
             style="fill:#999999;stroke:#000000"
             id="path703"
             inkscape:connector-curvature="0" />
        </g>
        <path
           d="m 179.7,287.5 c -2.4,6.8 -18,5.5 -11,12.8 8.2,14.2 16.4,28.3 24.6,42.5 2.7,-5.7 -7.7,-14.1 -9.7,-20.7 -3.8,-8.9 -15.8,-18.9 -7.7,-28.7 1.2,-2 2.5,-3.9 3.8,-5.8 z"
           style="opacity:0.7;fill:#1a1a1a;stroke:#000000"
           id="path705"
           inkscape:connector-curvature="0" />
        <path
           d="m 179.7,345.7 c 11.5,-7.5 23.1,-14.9 34.6,-22.4 -3.5,-3 -6.5,0.5 -9.6,2.2 -8.5,5.3 -16.9,10.5 -25.4,15.8 0.1,1.5 0.2,2.9 0.3,4.4 z"
           style="fill:#c8ab37;stroke:#000000;stroke-width:1.79999995"
           id="path707"
           inkscape:connector-curvature="0" />
      </g>
      <g
         transform="matrix(-0.463,0,0,0.474,341.802,-37.689)"
         id="g709">
        <path
           d="m 193.4,343.1 c -9.3,-15.8 -18.7,-31.7 -28,-47.5 3.3,-4.1 13.8,-13.5 16.7,-5.3 8.4,14.8 16.7,29.5 25.1,44.3 -4.6,2.9 -9.2,5.7 -13.8,8.6 z"
           style="fill:#333333;stroke:#000000"
           id="path711"
           inkscape:connector-curvature="0" />
        <g
           style="stroke:#000000"
           id="g713">
          <path
             d="m 182.4,291.9 c -2.7,5.9 -5.4,11.8 -8.1,17.7 1.8,1.7 4,10.2 5.4,5.4 2.3,-5.3 4.6,-10.6 6.9,-15.9 -1.4,-2.4 -2.8,-4.8 -4.2,-7.2 z"
             style="fill:#999999;stroke:#000000"
             id="path715"
             inkscape:connector-curvature="0" />
          <path
             d="m 169.4,301.5 c 6.3,0.3 12.6,0.6 19,1 0.5,2.3 6.8,8.4 1.9,7.3 -5.6,-0.4 -11.2,-0.8 -16.8,-1.2 -1.4,-2.3 -2.7,-4.6 -4.1,-7 z"
             style="fill:#999999;stroke:#000000"
             id="path717"
             inkscape:connector-curvature="0" />
        </g>
        <g
           style="stroke:#000000"
           transform="translate(9.64,16.692)"
           id="g719">
          <path
             d="m 182.4,291.9 c -2.7,5.9 -5.4,11.8 -8.1,17.7 1.8,1.7 4,10.2 5.4,5.4 2.3,-5.3 4.6,-10.6 6.9,-15.9 -1.4,-2.4 -2.8,-4.8 -4.2,-7.2 z"
             style="fill:#999999;stroke:#000000"
             id="path721"
             inkscape:connector-curvature="0" />
          <path
             d="m 169.4,301.5 c 6.3,0.3 12.6,0.6 19,1 0.5,2.3 6.8,8.4 1.9,7.3 -5.6,-0.4 -11.2,-0.8 -16.8,-1.2 -1.4,-2.3 -2.7,-4.6 -4.1,-7 z"
             style="fill:#999999;stroke:#000000"
             id="path723"
             inkscape:connector-curvature="0" />
        </g>
        <path
           d="m 179.7,287.5 c -2.4,6.8 -18,5.5 -11,12.8 8.2,14.2 16.4,28.3 24.6,42.5 2.7,-5.7 -7.7,-14.1 -9.7,-20.7 -3.8,-8.9 -15.8,-18.9 -7.7,-28.7 1.2,-2 2.5,-3.9 3.8,-5.8 z"
           style="opacity:0.7;fill:#1a1a1a;stroke:#000000"
           id="path725"
           inkscape:connector-curvature="0" />
        <path
           d="m 179.7,345.7 c 11.5,-7.5 23.1,-14.9 34.6,-22.4 -3.5,-3 -6.4,0.5 -9.6,2.2 -8.5,5.3 -16.9,10.5 -25.4,15.8 0.1,1.5 0.2,2.9 0.3,4.4 z"
           style="fill:#c8ab37;stroke:#000000;stroke-width:1.79999995"
           id="path727"
           inkscape:connector-curvature="0" />
      </g>
      <path
         d="m 221.3,108 7.5,6.6 -10.6,0.7 c 0,0 3.3,-1.1 3.8,-2.2 0.4,-0.8 0,-1.8 -0.2,-2.7 -0.1,-0.8 -0.6,-2.4 -0.6,-2.4 z"
         style="fill:#241f1c"
         id="path729"
         inkscape:connector-curvature="0" />
      <path
         d="m 223.5,108.6 c 0,0 2.2,-1 3.3,-1.1 1.9,-0.2 5.5,0.8 5.5,0.8 l 12.3,11.4 c 0,0 -8.2,-6.9 -12.9,-9.3 -1.3,-0.7 -2.8,-1 -4.3,-1.4 -1.3,-0.3 -4,-0.4 -4,-0.4 z"
         style="fill:#e6e6e6"
         id="path731"
         inkscape:connector-curvature="0" />
      <g
         style="stroke-width:5.30000019"
         transform="matrix(0.527,0,0,0.54,98.331,-66.163)"
         id="g733">
        <path
           d="m 314.3,407.7 c 0.6,32.2 -23.6,62.5 -55,69.3 -30.3,7.5 -64.1,-7.8 -78.5,-35.4 -15.7,-27.7 -9.3,-65.5 14.7,-86.5 23.6,-22.3 62.8,-24.6 88.9,-5.4 18.6,13 30.1,35.2 29.9,58"
           style="fill:#ffdd55;stroke:#000000;stroke-width:5.4000001;stroke-linecap:round;stroke-linejoin:round"
           id="path735"
           inkscape:connector-curvature="0" />
        <path
           d="m 304.4,377.3 c 3.5,17.2 1.5,35.9 -8.6,50.6 -12.5,18.5 -34.1,29.1 -56,31 -19.3,2.1 -41.8,0.5 -56,-14.4 10.5,17.2 28.9,29.8 49,32.3 15.3,-0.1 31.2,-1.4 44.5,-9.6 22.6,-12.8 36.9,-39.2 34.2,-65.1 -0.4,-8.7 -3,-17 -7.1,-24.7 z"
           style="fill:#c8ab37"
           id="path737"
           inkscape:connector-curvature="0" />
      </g>
      <g
         transform="matrix(0.433,0,0,0.45,123.715,-31.367)"
         id="g739">
        <path
           d="m 269.7,387.6 c 2.8,10.9 -11.8,27.4 -18.4,11.9 -3.9,-9.7 -3.9,-24.1 5.9,-30.2 9.7,-2.1 12.5,11.4 12.5,18.3"
           style="fill:#000000"
           id="path741"
           inkscape:connector-curvature="0" />
        <path
           d="m 270,390.2 c 2.8,11.8 -14,23.6 -17.8,7.7 -3.3,-8.3 0,-27.2 12,-22.5 4.4,3.5 5.7,9.5 5.8,14.8"
           style="fill:#1a1a1a"
           id="path743"
           inkscape:connector-curvature="0" />
        <path
           d="m 238,388.2 c 2.8,10.9 -11.8,27.4 -18.4,11.9 -3.9,-9.7 -3.9,-24.1 5.9,-30.2 9.7,-2.1 12.5,11.4 12.5,18.3"
           style="fill:#000000"
           id="path745"
           inkscape:connector-curvature="0" />
        <path
           d="m 237.9,390.7 c 2.8,11.8 -14,23.6 -17.8,7.7 -3.3,-8.3 0,-27.2 12,-22.5 4.4,3.5 5.7,9.5 5.8,14.8"
           style="fill:#1a1a1a"
           id="path747"
           inkscape:connector-curvature="0" />
        <path
           d="m 214.6,372.2 c 8.7,5.9 17.4,11.9 26.1,17.8 -2.2,-8 -4.4,-16.1 -6.6,-24.1 -6.5,2 -13.2,3.5 -19.5,6.3 z"
           style="fill:#ffdd55"
           id="path749"
           inkscape:connector-curvature="0" />
      </g>
      <g
         style="stroke-width:5.5999999"
         transform="matrix(0.337,0,0,0.44,135.074,-22.485)"
         id="g751">
        <path
           d="m 170.4,480.2 c -6.6,-12.4 4.9,-27.2 15.8,-33.1 17.6,-10.5 43.2,-8.1 55.6,9.2 5.6,8 12.5,29.1 -3,29.6 -21.7,-0.3 -43.6,-1.1 -65.2,-4.1 l -1.5,-0.5 -1.8,-1.1 0,0 z"
           style="fill:#a05a2c;stroke:#000000;stroke-width:5.69999981"
           id="path753"
           inkscape:connector-curvature="0" />
        <path
           d="m 174.6,458.4 c -8.4,12.7 9.7,14.6 18.2,15.6 13.1,0.7 26.2,1.9 39.3,1.5 8.1,1.2 13.9,-10.1 11.7,-12.9 6.7,9.8 3.7,26.9 -11.3,22.2 -17.8,-0.8 -35.7,-1.3 -53.4,-3 -16,-0.4 -10.6,-14.8 -4.5,-23.5 z"
           style="fill:#803300;filter:url(#o4-1)"
           id="path755"
           inkscape:connector-curvature="0" />
      </g>
      <g
         transform="matrix(0.187,0,0,0.192,162.493,53.759)"
         id="g757">
        <path
           d="m 106.6,596.3 c -9,-15.7 17.5,-52.5 23.2,-26.3 39.8,19 83.7,26.9 126.3,37.1 19.8,2.8 14.8,-37 16.1,-52.6 -15.9,-29.9 28.6,-23.1 45.5,-23 26.4,3 56.7,9.8 73.3,32.2 -4.2,21.9 -20.2,47.2 -23.3,73.1 -5.4,25.9 -16.4,50.9 -19.2,77.2 -15.6,19.8 -47.9,10 -69.5,5.4 -17.7,-5.4 -49.4,-18 -29.6,-39 2.3,-19.4 24.5,-55.7 -10.5,-51.7 -42.8,-8.5 -84.2,-22.9 -126.3,-34 l -2.8,0.6 -3.2,1.1 0,0 z"
           style="fill:#a05a2c;stroke:#000000;stroke-width:4"
           id="path759"
           inkscape:connector-curvature="0" />
        <path
           d="m 287.1,534.7 c -35.3,1.8 4.9,31.4 20.9,30.9 25.5,5.2 57.8,20.9 81.2,5.4 -9.5,-25.6 -44.1,-31.1 -68.6,-35.6 C 309.5,534 298.2,534 287,534.8 z"
           style="fill:#d38d5f;stroke:#000000"
           id="path761"
           inkscape:connector-curvature="0" />
        <path
           d="m 275.7,555.9 c 8.8,25.4 -6.2,51.2 -9,76.5 -7.7,19.8 -3.6,49.4 -20,62.1 6.9,17.5 23.9,-7 19.9,-19.8 4.4,-15.8 6.4,-40.7 12.9,-50.6 4.9,25.8 -9.5,53.6 -14.1,79.9 17.8,18.1 3,-28.7 12.5,-38.6 11.1,-16.7 13.2,-38.5 1.1,-55.4 2.2,-31.6 21.2,15.2 15.1,27.3 -5.9,24.5 -17.7,47.9 -18.3,73.8 22.5,13.6 3.7,-26.7 18.1,-36.4 15.9,-29.1 26.2,11.7 13.4,25.3 -9,15.5 5.1,20.9 5.7,4.6 9.4,-23.4 -1.7,-45.2 3.1,-68.2 -3,-14.4 27.9,-36.5 16.2,-11.6 -7.9,22.9 -10,49.2 -2.4,72 -3.6,13.6 -16.5,28.8 4.3,19.6 13.4,-24.6 -14.4,-51.2 4.4,-75.8 19.7,-14.1 19,27.5 3.8,32.9 5.9,9.9 0.5,37.2 -0.3,37.2 13.8,-18.1 -1.1,-37.3 13.9,-53.9 -5.6,-26.2 20.4,-56.3 19.6,-75 -19.6,1.4 -7.5,46.5 -32.5,48.4 -5.3,-14 7.2,-41.7 0.8,-50.6 -13.1,1.5 -8.1,30.3 -26.3,34.4 -6.2,6.7 -12.7,46.7 -17.3,19.6 0.5,-19.5 3.2,-35 16.3,-49.5 10.4,-12.9 -16.8,-18.3 -9.9,-1.1 -9.6,26.6 -26.1,1.6 -18.9,-15.2 1.9,-9.5 -5.6,-9.2 -11.8,-12.1 z"
           style="fill:#502d16"
           id="path763"
           inkscape:connector-curvature="0" />
        <path
           d="m 245.9,692.4 c 5.2,-10.8 10.6,-21.6 4.7,-2.5 10.2,22.5 52.6,33.2 52.7,-3.1 11.6,-28.6 -14.7,48.9 8.1,22.9 2.9,-21.9 -0.5,21.6 18.6,5.2 8,-7 5.6,-23 9,-3.6 18.6,-0.5 -12.7,18.4 -23.5,11.8 -24.3,-2.2 -58.4,-5.7 -70.5,-28.5 l 0.9,-2.1 0,0 z"
           style="fill:#d38d5f"
           id="path765"
           inkscape:connector-curvature="0" />
        <path
           d="m 274.8,540.4 c 28.2,-9.7 60.1,-2.4 87.1,8.6 15.3,2.8 38.9,28.8 7.8,26.2 -32,-2.5 -65.2,-9.2 -92.7,-26.3 -2.2,-1.9 -4.6,-5.9 -2.2,-8.6 z"
           style="fill:#e9c6af"
           id="path767"
           inkscape:connector-curvature="0" />
        <path
           d="m 277.9,547.7 c -4.1,-18.3 36.9,-7.5 49.4,-7.4 18.6,4.7 54.4,10.8 55.1,31.2 -31.5,6.3 -63.1,-6.7 -92.6,-16.5 -4.2,-2 -8.7,-3.8 -12,-7.2 z"
           style="fill:#deaa87"
           id="path769"
           inkscape:connector-curvature="0" />
        <path
           d="m 277.2,542.6 c 23.3,-8 50.1,-1.2 73.4,5 15.6,1.6 50.6,27.3 15.1,24.4 -29.1,-1.5 -57.4,-10.6 -83.8,-22.2 -2.3,-1.5 -5.1,-4.1 -4.6,-7.2 z"
           style="fill:#d38d5f"
           id="path771"
           inkscape:connector-curvature="0" />
        <path
           d="m 305.9,620 c -11.4,8.6 1.9,32.5 2.6,7.5 -0.7,-1.9 0.3,-6.7 -2.6,-7.5 z"
           style="fill:#deaa87"
           id="path773"
           inkscape:connector-curvature="0" />
      </g>
      <path
         d="m 185.2,167.7 c 0.1,-2.5 3.4,-5.3 5.7,-6.1 3,-0.9 7.1,-0.6 9.9,0.7 3,1.3 5.5,3.5 6.7,6.5 0.9,2.4 0.8,7.1 -0.8,9.1 -1.1,1.3 -8.1,-1.2 -11.9,-3.1 -3.6,-1.8 -9.7,-5.1 -9.6,-7.2 z"
         style="fill:#ffe680;stroke:#000000;stroke-width:1.79999995"
         id="path775"
         inkscape:connector-curvature="0" />
      <path
         d="m 203.1,432.7 c 0,0 1.1,6 -0.8,8.6 -1.5,2 -2.8,2.6 -5.4,3.7 -7.4,3.1 -16.1,-1.7 -23.8,-4 -4.7,-1.4 -12.5,-5.8 -12.5,-5.8 0,0 0.9,2 2,2.9 2.5,2.1 5.5,3.6 8.3,5.2 4.2,2.3 8.1,4.4 12.4,6.2 3.1,1.3 6.6,2.5 9.8,3.4 3.2,0.9 7.3,2 9.3,1.5 1.7,-0.5 3.2,-5.2 3.6,-8.2 0.4,-3.2 0,-6.5 -1,-9.6 -0.6,-1.8 -1.8,-3.9 -1.8,-3.9 z"
         style="fill:#c8ab37;filter:url(#o5-0)"
         transform="matrix(0.463,0,0,0.474,112.23,-37.743)"
         id="path777"
         inkscape:connector-curvature="0" />
      <path
         d="m 215.4,164.3 c -0.8,-1.8 -1.5,-4.4 -1.5,-4.4 0,0 1.5,1.2 2.4,1.7 1.8,0.9 3.8,1.4 5.8,2 2.5,0.8 5.3,1.5 7.9,1.7 1.4,0.1 3.9,-0.3 3.9,-0.3 0,0 -0.7,2 -1.1,3 -0.4,1.1 -1.2,3.2 -1.2,3.2 0,0 0.5,-2 0.8,-3.1 0.2,-0.7 1,-1.5 0.5,-2 -0.4,-0.5 -1.3,-0.2 -1.8,0.2 -0.7,0.6 -0.3,1.8 -0.6,2.7 -0.3,0.8 -0.8,1.5 -1.1,2.3 -0.3,0.8 -0.3,1.7 -0.7,2.5 -0.3,0.5 -1.2,1.1 -1.2,1.1 0,0 1,-1.1 0.9,-1.4 -0.1,-0.2 -0.2,-2.1 0.1,-3 0.3,-0.7 0.8,-1.2 0.9,-1.9 0.2,-0.7 0.3,-1.4 -0.1,-2 -0.6,-0.8 -2.7,-1.2 -2.7,-1.2 0,0 -2.7,-0.7 -4.1,-1 -1.1,-0.3 -2.1,-0.5 -3.2,-0.8 -1,-0.2 -2,-0.8 -3,-0.7 -0.9,0.2 0,1.1 0,1.7 0,0.7 0.1,2.2 0.1,2.2 0,0 -0.1,-1.5 -0.5,-2.2 -0.1,-0.2 -0.4,-0.2 -0.5,-0.4 z"
         style="fill:#deaa87"
         id="path779"
         inkscape:connector-curvature="0" />
    </g>
  </g>
</svg>
